<?xml version="1.0" encoding="utf-8"?>
<!-- Generator: Adobe Illustrator 28.0.0, SVG Export Plug-In . SVG Version: 6.00 Build 0)  -->
<svg version="1.1" id="Layer_1" xmlns:sketch="http://www.bohemiancoding.com/sketch/ns"
	 xmlns="http://www.w3.org/2000/svg" xmlns:xlink="http://www.w3.org/1999/xlink" x="0px" y="0px" viewBox="0 0 56 32.7"
	 style="enable-background:new 0 0 56 32.7;" xml:space="preserve">
<style type="text/css">
	.st0{fill:#FFFFFF;fill-opacity:0;}
	.st1{fill:none;}
	.st2{fill:#333333;fill-opacity:0;}
	.st3{fill-rule:evenodd;clip-rule:evenodd;}
	.st4{fill:#2273F4;}
	.st5{fill:#333333;}
</style>
<rect x="-22" y="-20.4" class="st0" width="100" height="100"/>
<rect x="-22" y="-20.4" class="st1" width="100" height="100"/>
<g transform="translate(74.76000213623047,69.302001953125)">
	<g transform="matrix(1,0,0,1,65.23999786376953,0)">
		<rect x="-120.8" y="-69.3" class="st2" width="17.6" height="17.6"/>
		<g>
			<g>
				<g transform="scale(1, 1) skewX(0)">
					<g sketch:type="MSPage">
						<g sketch:type="MSLayerGroup">
							<path sketch:type="MSShapeGroup" class="st3" d="M-106.4-69.3h-11.2c-1.8,0-3.2,1.5-3.2,3.2v11.2c0,1.8,1.5,3.2,3.2,3.2h11.2
								c1.8,0,3.2-1.5,3.2-3.2v-11.2C-103.2-67.9-104.6-69.3-106.4-69.3"/>
						</g>
					</g>
				</g>
			</g>
			<g>
				<path class="st4" d="M-116.8-54.6h9.7v-3.8h-1.8l-0.2,1.8h-4.1v-2.9h3.4v-1.7h-3.4v-3h4.1l0.2,1.8h1.8v-3.8h-9.7v2.1h1.1v7.6
					h-1.1V-54.6z"/>
			</g>
		</g>
	</g>
	<g transform="translate(0,67)">
		<g transform="matrix(1,0,0,1,0,0)">
			<g transform="scale(1)">
				<g>
					<path class="st5" d="M-74.8-108.1h6.5v-2.6h-1.2l-0.1,1.2h-2.7v-2h2.3v-1.1h-2.3v-2h2.7l0.1,1.2h1.2v-2.6h-6.5v1.4h0.8v5.1
						h-0.8V-108.1z M-67.6-108.1h3.1v-1.2h-0.7v-2.7c0.2-0.5,0.5-1,1-1c0.7,0,1,0.5,1,1.6v3.2h2.3v-1.2h-0.7v-2.4c0-0.1,0-0.2,0-0.3
						c0.2-0.5,0.5-1,1-1c0.7,0,1,0.5,1,1.6v3.2h2.4v-1.2H-58v-2.4c0-1.7-0.8-2.5-2.1-2.5c-0.8,0-1.4,0.5-1.7,1.1
						c-0.3-0.7-0.9-1.1-1.8-1.1c-0.6,0-1.1,0.3-1.5,0.7v-0.6h-2.4v1.2h0.8v3.7h-0.8v1.3H-67.6z M-57.1-111.1c0,2,1.1,3.1,2.6,3.1
						c0.8,0,1.3-0.2,1.8-0.7v0.6h2.4v-1.2h-0.8v-4.8h-1.6v0.6c-0.4-0.5-1-0.7-1.8-0.7C-56-114.2-57.1-113.1-57.1-111.1z
						 M-55.5-111.1c0-1.1,0.6-1.7,1.5-1.7c0.6,0,1.1,0.4,1.3,1v1.5c-0.2,0.6-0.7,1-1.3,1C-54.9-109.4-55.5-110-55.5-111.1z
						 M-49.9-114.1v1.2h0.8v3.7h-0.8v1.2h3.2v-1.2h-0.8v-4.8L-49.9-114.1L-49.9-114.1z M-49.5-115.7c0,0.6,0.4,0.9,1.2,0.9
						s1.2-0.3,1.2-0.9s-0.5-0.9-1.2-0.9S-49.5-116.3-49.5-115.7z M-46.2-115.2h0.8v5.9h-0.8v1.2h3.2v-1.2h-0.8v-7.1h-2.4V-115.2z
						 M-42.4-112.1c0,2.7,1.7,4.1,4.2,4.1c1.2,0,2.2-0.3,2.9-0.8v-2.3h0.6v-1.1h-3.9v1.1h1.6v1.5c-0.4,0.1-0.8,0.2-1.2,0.2
						c-1.6,0-2.6-1-2.6-2.6s1-2.6,2.3-2.6c0.4,0,0.8,0,1.2,0.1l0.1,1.4h1.6v-2.5c-0.9-0.3-1.7-0.5-2.9-0.5
						C-40.7-116.1-42.4-114.7-42.4-112.1z M-34.1-108.1h3.2v-1.4h-0.8v-1.3h1.4c1.8,0,3.1-0.8,3.1-2.7c0-1.9-1.3-2.6-3.1-2.6h-3.8
						v1.4h0.8v5.2h-0.8V-108.1z M-30.3-114.6c0.9,0,1.6,0.3,1.5,1.3c0,0.9-0.6,1.3-1.5,1.3h-1.4v-2.6
						C-31.7-114.6-30.3-114.6-30.3-114.6z M-26.5-116v2.6h1.3l0.1-1.3h1.7v5.1h-0.8v1.4h3.2v-1.4h-0.8v-5.1h1.7l0.1,1.3h1.3v-2.6
						H-26.5z"/>
				</g>
			</g>
		</g>
	</g>
	<g>
		<path d="M-67-37.3h1.7l0.5-0.7h-0.7l0.2-0.3h1.4l-0.7,1c-0.1,0.1-0.2,0.2-0.3,0.2c-0.1,0-0.3,0.1-0.6,0.1h-1.8c-0.2,0-0.4,0-0.4,0
			c-0.1,0-0.1-0.1-0.1-0.1c0,0,0-0.1,0-0.1l1.1-1.6c0.1-0.1,0.2-0.2,0.3-0.2s0.3-0.1,0.6-0.1h2.5l-0.2,0.3h-2.4c-0.1,0-0.1,0-0.1,0
			c0,0-0.1,0-0.1,0.1l-1,1.4c0,0,0,0,0,0C-67.1-37.3-67.1-37.3-67-37.3z"/>
		<path d="M-64.4-37.1l1.3-1.9c0.1-0.1,0.2-0.2,0.3-0.2s0.3-0.1,0.6-0.1h1.8c0.2,0,0.3,0,0.4,0c0.1,0,0.1,0.1,0.1,0.1
			c0,0,0,0.1,0,0.1l-0.4,0.6c-0.1,0.1-0.2,0.2-0.3,0.2s-0.3,0.1-0.6,0.1H-63l-0.7,1H-64.4z M-62.8-38.3h1.7c0.1,0,0.1,0,0.1,0
			c0,0,0.1,0,0.1-0.1l0.3-0.5c0,0,0,0,0,0c0,0,0-0.1-0.1-0.1h-1.5c-0.1,0-0.1,0-0.1,0c0,0-0.1,0-0.1,0.1L-62.8-38.3z"/>
		<path d="M-55.9-39.2l-0.2,0.3h-1.3l-1.3,1.9h-0.7l1.3-1.9h-1.3l0.2-0.3H-55.9z"/>
		<path d="M-55-37.1l1.3-1.9c0.1-0.1,0.2-0.2,0.3-0.2c0.1,0,0.3-0.1,0.6-0.1h1.8c0.2,0,0.3,0,0.4,0c0.1,0,0.1,0.1,0.1,0.1
			c0,0,0,0.1,0,0.1l-0.4,0.6c-0.1,0.1-0.2,0.2-0.3,0.2s-0.3,0.1-0.6,0.1h-1.8l-0.7,1H-55z M-53.5-38.3h1.7c0.1,0,0.1,0,0.1,0
			c0,0,0.1,0,0.1-0.1l0.3-0.5c0,0,0,0,0,0c0,0,0-0.1-0.1-0.1h-1.5c-0.1,0-0.1,0-0.1,0c0,0-0.1,0-0.1,0.1L-53.5-38.3z"/>
		<path d="M-51.1-37.3l0.6-0.9c0.1-0.1,0.2-0.2,0.3-0.2c0.1,0,0.3-0.1,0.6-0.1h1.2c0.2,0,0.3,0,0.4,0c0.1,0,0.1,0.1,0.1,0.1
			c0,0,0,0.1,0,0.1l-0.6,0.9c-0.1,0.1-0.2,0.2-0.3,0.2c-0.1,0-0.3,0.1-0.6,0.1h-1.2c-0.2,0-0.3,0-0.4,0c-0.1,0-0.1-0.1-0.1-0.1
			C-51.2-37.3-51.2-37.3-51.1-37.3z M-50.3-37.3h1c0.1,0,0.1,0,0.1,0c0,0,0.1,0,0.1-0.1l0.5-0.7c0,0,0,0,0,0c0,0,0-0.1-0.1-0.1h-1
			c-0.1,0-0.1,0-0.1,0c0,0-0.1,0-0.1,0.1l-0.5,0.7c0,0,0,0,0,0C-50.4-37.3-50.3-37.3-50.3-37.3z"/>
		<path d="M-46-37.3h0.4c0.1,0,0.1,0,0.1,0c0,0,0.1,0,0.1-0.1l0.8-1.1h0.7l-0.8,1.2c-0.1,0.1-0.2,0.2-0.3,0.2
			c-0.1,0-0.3,0.1-0.6,0.1h-1.9c-0.2,0-0.3,0-0.4,0c-0.1,0-0.1-0.1-0.1-0.1c0,0,0-0.1,0-0.1l0.8-1.2h0.7l-0.8,1.1c0,0,0,0,0,0
			c0,0,0,0.1,0.1,0.1h0.4l0.8-1.2h0.7L-46-37.3z"/>
		<path d="M-41.7-37.1h-2c-0.2,0-0.3,0-0.4,0c-0.1,0-0.1-0.1-0.1-0.1c0,0,0-0.1,0-0.1l0.6-0.9c0.1-0.1,0.2-0.2,0.3-0.2
			c0.1-0.1,0.3-0.1,0.5-0.1h1.4c0.2,0,0.3,0,0.4,0c0.1,0,0.1,0.1,0.1,0.1c0,0,0,0.1,0,0.1l-0.2,0.3c-0.1,0.1-0.2,0.2-0.3,0.2
			s-0.3,0.1-0.6,0.1h-1.3l-0.2,0.2c0,0,0,0,0,0c0,0,0,0.1,0.1,0.1h1.8L-41.7-37.1z M-42.9-38.1l-0.2,0.2h1.3l0.2-0.2c0,0,0,0,0,0
			c0,0,0-0.1-0.1-0.1h-1C-42.8-38.2-42.9-38.2-42.9-38.1z"/>
		<path d="M-41.2-37.1l0.8-1.2c0.1-0.1,0.2-0.2,0.3-0.2c0.1,0,0.3-0.1,0.6-0.1h1.6l-0.2,0.3h-1.4c-0.1,0-0.1,0-0.1,0
			c0,0-0.1,0-0.1,0.1l-0.8,1.1H-41.2z"/>
		<path d="M-35.8-37.1h-2c-0.2,0-0.3,0-0.4,0c-0.1,0-0.1-0.1-0.1-0.1c0,0,0-0.1,0-0.1l0.6-0.9c0.1-0.1,0.2-0.2,0.3-0.2
			c0.1-0.1,0.3-0.1,0.5-0.1h1.4c0.2,0,0.3,0,0.4,0c0.1,0,0.1,0.1,0.1,0.1c0,0,0,0.1,0,0.1l-0.2,0.3c-0.1,0.1-0.2,0.2-0.3,0.2
			s-0.3,0.1-0.6,0.1h-1.3l-0.2,0.2c0,0,0,0,0,0c0,0,0,0.1,0.1,0.1h1.8L-35.8-37.1z M-37-38.1l-0.2,0.2h1.3l0.2-0.2c0,0,0,0,0,0
			c0,0,0-0.1-0.1-0.1h-1C-36.9-38.2-37-38.2-37-38.1z"/>
		<path d="M-31.2-39.1l-1.2,1.7c-0.1,0.1-0.2,0.2-0.3,0.2c-0.1,0-0.3,0.1-0.6,0.1h-1.2c-0.2,0-0.3,0-0.4,0c-0.1,0-0.1-0.1-0.1-0.1
			c0,0,0-0.1,0-0.1l0.6-0.9c0.1-0.1,0.2-0.2,0.3-0.2c0.1,0,0.3-0.1,0.6-0.1h1.3l0.4-0.6H-31.2z M-32.7-38.2h-1c-0.1,0-0.1,0-0.1,0
			c0,0-0.1,0-0.1,0.1l-0.5,0.7c0,0,0,0,0,0c0,0,0,0.1,0.1,0.1h1c0.1,0,0.1,0,0.1,0c0,0,0.1,0,0.1-0.1l0.5-0.7c0,0,0,0,0,0
			C-32.6-38.2-32.6-38.2-32.7-38.2z"/>
		<path d="M-27-37.1h-0.7l0.7-1h-1.9l-0.7,1h-0.7l1.3-1.9c0.1-0.1,0.2-0.2,0.3-0.2c0.1,0,0.3-0.1,0.6-0.1h1.8c0.2,0,0.3,0,0.4,0
			s0.1,0.1,0.1,0.1c0,0,0,0.1,0,0.1L-27-37.1z M-26.5-38.9h-1.5c-0.1,0-0.1,0-0.1,0c0,0-0.1,0-0.1,0.1l-0.4,0.5h1.9l0.4-0.5
			c0,0,0,0,0,0C-26.4-38.9-26.5-38.9-26.5-38.9z"/>
		<path d="M-26.5-37.1l1.5-2.2h0.7l-1.5,2.2H-26.5z"/>
	</g>
</g>
</svg>
